<svg width="30" height="30" viewBox="0 0 30 30" xmlns="http://www.w3.org/2000/svg">
    <path d="M3 25c5.99-4.567 8.714-6.404 9.522-6.667.057-.018.373-.116.395-.296.04-.352-1.1-.537-2.3-1.608a6.267 6.267 0 0 1-.522-.528c-1.01-1.13-1.38-2.254-1.455-2.498A6.476 6.476 0 0 1 14.823 5h.354a6.476 6.476 0 0 1 6.183 8.403c-.075.244-.445 1.368-1.455 2.498a6.267 6.267 0 0 1-.523.528c-1.199 1.071-2.34 1.256-2.299 1.608.022.18.338.278.395.296.808.263 3.532 2.1 9.522 6.667" stroke="#FAFAFA" fill="none" fill-rule="evenodd"/>
</svg>
